<?xml version="1.0" encoding="UTF-8" standalone="no"?>
<!DOCTYPE svg PUBLIC "-//W3C//DTD SVG 1.1//EN"
 "http://www.w3.org/Graphics/SVG/1.1/DTD/svg11.dtd">
<!-- Generated by graphviz version 2.38.0 (20140413.2041)
 -->
<!-- Title: Tree Pages: 1 -->
<svg width="918pt" height="1363pt"
 viewBox="0.00 0.00 917.62 1363.20" xmlns="http://www.w3.org/2000/svg" xmlns:xlink="http://www.w3.org/1999/xlink">
<g id="graph0" class="graph" transform="scale(1 1) rotate(0) translate(4 1359.2)">
<title>Tree</title>
<polygon fill="white" stroke="none" points="-4,4 -4,-1359.2 913.623,-1359.2 913.623,4 -4,4"/>
<!-- 0 -->
<g id="node1" class="node"><title>0</title>
<path fill="#e58139" fill-opacity="0.682353" stroke="black" d="M429.763,-1355.2C429.763,-1355.2 317.86,-1355.2 317.86,-1355.2 311.86,-1355.2 305.86,-1349.2 305.86,-1343.2 305.86,-1343.2 305.86,-1275.2 305.86,-1275.2 305.86,-1269.2 311.86,-1263.2 317.86,-1263.2 317.86,-1263.2 429.763,-1263.2 429.763,-1263.2 435.763,-1263.2 441.763,-1269.2 441.763,-1275.2 441.763,-1275.2 441.763,-1343.2 441.763,-1343.2 441.763,-1349.2 435.763,-1355.2 429.763,-1355.2"/>
<text text-anchor="start" x="328.687" y="-1338.6" font-family="Helvetica,sans-Serif" font-size="14.00">Crit1 ≤ 1.9025</text>
<text text-anchor="start" x="333.543" y="-1321.8" font-family="Helvetica,sans-Serif" font-size="14.00">gini = 0.3666</text>
<text text-anchor="start" x="324.211" y="-1305" font-family="Helvetica,sans-Serif" font-size="14.00">samples = 1911</text>
<text text-anchor="start" x="314.086" y="-1288.2" font-family="Helvetica,sans-Serif" font-size="14.00">value = [1449, 462]</text>
<text text-anchor="start" x="332" y="-1271.4" font-family="Helvetica,sans-Serif" font-size="14.00">class = Noise</text>
</g>
<!-- 1 -->
<g id="node2" class="node"><title>1</title>
<path fill="#e58139" fill-opacity="0.988235" stroke="black" d="M349.908,-1227.2C349.908,-1227.2 223.715,-1227.2 223.715,-1227.2 217.715,-1227.2 211.715,-1221.2 211.715,-1215.2 211.715,-1215.2 211.715,-1147.2 211.715,-1147.2 211.715,-1141.2 217.715,-1135.2 223.715,-1135.2 223.715,-1135.2 349.908,-1135.2 349.908,-1135.2 355.908,-1135.2 361.908,-1141.2 361.908,-1147.2 361.908,-1147.2 361.908,-1215.2 361.908,-1215.2 361.908,-1221.2 355.908,-1227.2 349.908,-1227.2"/>
<text text-anchor="start" x="219.514" y="-1210.6" font-family="Helvetica,sans-Serif" font-size="14.00">TotalNoise_s ≤ 5.393</text>
<text text-anchor="start" x="246.543" y="-1193.8" font-family="Helvetica,sans-Serif" font-size="14.00">gini = 0.0214</text>
<text text-anchor="start" x="237.211" y="-1177" font-family="Helvetica,sans-Serif" font-size="14.00">samples = 1388</text>
<text text-anchor="start" x="230.978" y="-1160.2" font-family="Helvetica,sans-Serif" font-size="14.00">value = [1373, 15]</text>
<text text-anchor="start" x="245" y="-1143.4" font-family="Helvetica,sans-Serif" font-size="14.00">class = Noise</text>
</g>
<!-- 0&#45;&gt;1 -->
<g id="edge1" class="edge"><title>0&#45;&gt;1</title>
<path fill="none" stroke="black" d="M342.648,-1263.07C336.526,-1254.2 330.049,-1244.82 323.758,-1235.71"/>
<polygon fill="black" stroke="black" points="326.612,-1233.68 318.05,-1227.44 320.852,-1237.66 326.612,-1233.68"/>
<text text-anchor="middle" x="313.547" y="-1247.83" font-family="Helvetica,sans-Serif" font-size="14.00">True</text>
</g>
<!-- 26 -->
<g id="node27" class="node"><title>26</title>
<path fill="#399de5" fill-opacity="0.831373" stroke="black" d="M530.097,-1227.2C530.097,-1227.2 391.527,-1227.2 391.527,-1227.2 385.527,-1227.2 379.527,-1221.2 379.527,-1215.2 379.527,-1215.2 379.527,-1147.2 379.527,-1147.2 379.527,-1141.2 385.527,-1135.2 391.527,-1135.2 391.527,-1135.2 530.097,-1135.2 530.097,-1135.2 536.097,-1135.2 542.097,-1141.2 542.097,-1147.2 542.097,-1147.2 542.097,-1215.2 542.097,-1215.2 542.097,-1221.2 536.097,-1227.2 530.097,-1227.2"/>
<text text-anchor="start" x="387.669" y="-1210.6" font-family="Helvetica,sans-Serif" font-size="14.00">AbsSignal_s ≤ 79.0995</text>
<text text-anchor="start" x="420.543" y="-1193.8" font-family="Helvetica,sans-Serif" font-size="14.00">gini = 0.2484</text>
<text text-anchor="start" x="415.102" y="-1177" font-family="Helvetica,sans-Serif" font-size="14.00">samples = 523</text>
<text text-anchor="start" x="408.869" y="-1160.2" font-family="Helvetica,sans-Serif" font-size="14.00">value = [76, 447]</text>
<text text-anchor="start" x="422.884" y="-1143.4" font-family="Helvetica,sans-Serif" font-size="14.00">class = EAS</text>
</g>
<!-- 0&#45;&gt;26 -->
<g id="edge26" class="edge"><title>0&#45;&gt;26</title>
<path fill="none" stroke="black" d="M404.975,-1263.07C411.097,-1254.2 417.575,-1244.82 423.865,-1235.71"/>
<polygon fill="black" stroke="black" points="426.772,-1237.66 429.574,-1227.44 421.012,-1233.68 426.772,-1237.66"/>
<text text-anchor="middle" x="434.076" y="-1247.83" font-family="Helvetica,sans-Serif" font-size="14.00">False</text>
</g>
<!-- 2 -->
<g id="node3" class="node"><title>2</title>
<path fill="#399de5" stroke="black" d="M202.851,-1090.9C202.851,-1090.9 130.773,-1090.9 130.773,-1090.9 124.773,-1090.9 118.773,-1084.9 118.773,-1078.9 118.773,-1078.9 118.773,-1027.5 118.773,-1027.5 118.773,-1021.5 124.773,-1015.5 130.773,-1015.5 130.773,-1015.5 202.851,-1015.5 202.851,-1015.5 208.851,-1015.5 214.851,-1021.5 214.851,-1027.5 214.851,-1027.5 214.851,-1078.9 214.851,-1078.9 214.851,-1084.9 208.851,-1090.9 202.851,-1090.9"/>
<text text-anchor="start" x="138.217" y="-1074.2" font-family="Helvetica,sans-Serif" font-size="14.00">gini = 0.0</text>
<text text-anchor="start" x="128.885" y="-1057.4" font-family="Helvetica,sans-Serif" font-size="14.00">samples = 3</text>
<text text-anchor="start" x="126.543" y="-1040.6" font-family="Helvetica,sans-Serif" font-size="14.00">value = [0, 3]</text>
<text text-anchor="start" x="128.884" y="-1023.8" font-family="Helvetica,sans-Serif" font-size="14.00">class = EAS</text>
</g>
<!-- 1&#45;&gt;2 -->
<g id="edge2" class="edge"><title>1&#45;&gt;2</title>
<path fill="none" stroke="black" d="M243.828,-1135.07C232.467,-1123.14 220.218,-1110.28 208.904,-1098.4"/>
<polygon fill="black" stroke="black" points="211.428,-1095.97 201.997,-1091.14 206.359,-1100.8 211.428,-1095.97"/>
</g>
<!-- 3 -->
<g id="node4" class="node"><title>3</title>
<path fill="#e58139" fill-opacity="0.992157" stroke="black" d="M348.48,-1099.2C348.48,-1099.2 245.143,-1099.2 245.143,-1099.2 239.143,-1099.2 233.143,-1093.2 233.143,-1087.2 233.143,-1087.2 233.143,-1019.2 233.143,-1019.2 233.143,-1013.2 239.143,-1007.2 245.143,-1007.2 245.143,-1007.2 348.48,-1007.2 348.48,-1007.2 354.48,-1007.2 360.48,-1013.2 360.48,-1019.2 360.48,-1019.2 360.48,-1087.2 360.48,-1087.2 360.48,-1093.2 354.48,-1099.2 348.48,-1099.2"/>
<text text-anchor="start" x="249.341" y="-1082.6" font-family="Helvetica,sans-Serif" font-size="14.00">dt2_s ≤ 0.8531</text>
<text text-anchor="start" x="256.543" y="-1065.8" font-family="Helvetica,sans-Serif" font-size="14.00">gini = 0.0172</text>
<text text-anchor="start" x="247.211" y="-1049" font-family="Helvetica,sans-Serif" font-size="14.00">samples = 1385</text>
<text text-anchor="start" x="240.978" y="-1032.2" font-family="Helvetica,sans-Serif" font-size="14.00">value = [1373, 12]</text>
<text text-anchor="start" x="255" y="-1015.4" font-family="Helvetica,sans-Serif" font-size="14.00">class = Noise</text>
</g>
<!-- 1&#45;&gt;3 -->
<g id="edge3" class="edge"><title>1&#45;&gt;3</title>
<path fill="none" stroke="black" d="M290.394,-1135.07C291.047,-1126.83 291.736,-1118.16 292.41,-1109.67"/>
<polygon fill="black" stroke="black" points="295.919,-1109.69 293.221,-1099.44 288.941,-1109.13 295.919,-1109.69"/>
</g>
<!-- 4 -->
<g id="node5" class="node"><title>4</title>
<path fill="#e58139" fill-opacity="0.333333" stroke="black" d="M223.41,-971.2C223.41,-971.2 104.214,-971.2 104.214,-971.2 98.2137,-971.2 92.2137,-965.2 92.2137,-959.2 92.2137,-959.2 92.2137,-891.2 92.2137,-891.2 92.2137,-885.2 98.2137,-879.2 104.214,-879.2 104.214,-879.2 223.41,-879.2 223.41,-879.2 229.41,-879.2 235.41,-885.2 235.41,-891.2 235.41,-891.2 235.41,-959.2 235.41,-959.2 235.41,-965.2 229.41,-971.2 223.41,-971.2"/>
<text text-anchor="start" x="100.013" y="-954.6" font-family="Helvetica,sans-Serif" font-size="14.00">SNRatio_s ≤ 6.7698</text>
<text text-anchor="start" x="131.325" y="-937.8" font-family="Helvetica,sans-Serif" font-size="14.00">gini = 0.48</text>
<text text-anchor="start" x="121.994" y="-921" font-family="Helvetica,sans-Serif" font-size="14.00">samples = 10</text>
<text text-anchor="start" x="123.543" y="-904.2" font-family="Helvetica,sans-Serif" font-size="14.00">value = [6, 4]</text>
<text text-anchor="start" x="122" y="-887.4" font-family="Helvetica,sans-Serif" font-size="14.00">class = Noise</text>
</g>
<!-- 3&#45;&gt;4 -->
<g id="edge4" class="edge"><title>3&#45;&gt;4</title>
<path fill="none" stroke="black" d="M249.171,-1007.07C239.43,-997.839 229.101,-988.053 219.118,-978.595"/>
<polygon fill="black" stroke="black" points="221.233,-975.778 211.566,-971.441 216.419,-980.86 221.233,-975.778"/>
</g>
<!-- 7 -->
<g id="node8" class="node"><title>7</title>
<path fill="#e58139" fill-opacity="0.996078" stroke="black" d="M361.697,-971.2C361.697,-971.2 265.926,-971.2 265.926,-971.2 259.926,-971.2 253.926,-965.2 253.926,-959.2 253.926,-959.2 253.926,-891.2 253.926,-891.2 253.926,-885.2 259.926,-879.2 265.926,-879.2 265.926,-879.2 361.697,-879.2 361.697,-879.2 367.697,-879.2 373.697,-885.2 373.697,-891.2 373.697,-891.2 373.697,-959.2 373.697,-959.2 373.697,-965.2 367.697,-971.2 361.697,-971.2"/>
<text text-anchor="start" x="268.687" y="-954.6" font-family="Helvetica,sans-Serif" font-size="14.00">Crit1 ≤ 0.9286</text>
<text text-anchor="start" x="273.543" y="-937.8" font-family="Helvetica,sans-Serif" font-size="14.00">gini = 0.0116</text>
<text text-anchor="start" x="264.211" y="-921" font-family="Helvetica,sans-Serif" font-size="14.00">samples = 1375</text>
<text text-anchor="start" x="261.869" y="-904.2" font-family="Helvetica,sans-Serif" font-size="14.00">value = [1367, 8]</text>
<text text-anchor="start" x="272" y="-887.4" font-family="Helvetica,sans-Serif" font-size="14.00">class = Noise</text>
</g>
<!-- 3&#45;&gt;7 -->
<g id="edge7" class="edge"><title>3&#45;&gt;7</title>
<path fill="none" stroke="black" d="M302.901,-1007.07C304.024,-998.743 305.208,-989.966 306.366,-981.385"/>
<polygon fill="black" stroke="black" points="309.839,-981.82 307.708,-971.441 302.902,-980.884 309.839,-981.82"/>
</g>
<!-- 5 -->
<g id="node6" class="node"><title>5</title>
<path fill="#e58139" stroke="black" d="M87.4358,-834.9C87.4358,-834.9 12.1876,-834.9 12.1876,-834.9 6.18759,-834.9 0.187591,-828.9 0.187591,-822.9 0.187591,-822.9 0.187591,-771.5 0.187591,-771.5 0.187591,-765.5 6.18759,-759.5 12.1876,-759.5 12.1876,-759.5 87.4358,-759.5 87.4358,-759.5 93.4358,-759.5 99.4358,-765.5 99.4358,-771.5 99.4358,-771.5 99.4358,-822.9 99.4358,-822.9 99.4358,-828.9 93.4358,-834.9 87.4358,-834.9"/>
<text text-anchor="start" x="21.2167" y="-818.2" font-family="Helvetica,sans-Serif" font-size="14.00">gini = 0.0</text>
<text text-anchor="start" x="11.885" y="-801.4" font-family="Helvetica,sans-Serif" font-size="14.00">samples = 6</text>
<text text-anchor="start" x="9.5428" y="-784.6" font-family="Helvetica,sans-Serif" font-size="14.00">value = [6, 0]</text>
<text text-anchor="start" x="8" y="-767.8" font-family="Helvetica,sans-Serif" font-size="14.00">class = Noise</text>
</g>
<!-- 4&#45;&gt;5 -->
<g id="edge5" class="edge"><title>4&#45;&gt;5</title>
<path fill="none" stroke="black" d="M122.977,-879.067C112.286,-867.25 100.767,-854.519 90.1042,-842.734"/>
<polygon fill="black" stroke="black" points="92.5425,-840.212 83.238,-835.145 87.3518,-844.908 92.5425,-840.212"/>
</g>
<!-- 6 -->
<g id="node7" class="node"><title>6</title>
<path fill="#399de5" stroke="black" d="M201.851,-834.9C201.851,-834.9 129.773,-834.9 129.773,-834.9 123.773,-834.9 117.773,-828.9 117.773,-822.9 117.773,-822.9 117.773,-771.5 117.773,-771.5 117.773,-765.5 123.773,-759.5 129.773,-759.5 129.773,-759.5 201.851,-759.5 201.851,-759.5 207.851,-759.5 213.851,-765.5 213.851,-771.5 213.851,-771.5 213.851,-822.9 213.851,-822.9 213.851,-828.9 207.851,-834.9 201.851,-834.9"/>
<text text-anchor="start" x="137.217" y="-818.2" font-family="Helvetica,sans-Serif" font-size="14.00">gini = 0.0</text>
<text text-anchor="start" x="127.885" y="-801.4" font-family="Helvetica,sans-Serif" font-size="14.00">samples = 4</text>
<text text-anchor="start" x="125.543" y="-784.6" font-family="Helvetica,sans-Serif" font-size="14.00">value = [0, 4]</text>
<text text-anchor="start" x="127.884" y="-767.8" font-family="Helvetica,sans-Serif" font-size="14.00">class = EAS</text>
</g>
<!-- 4&#45;&gt;6 -->
<g id="edge6" class="edge"><title>4&#45;&gt;6</title>
<path fill="none" stroke="black" d="M164.528,-879.067C164.701,-868.151 164.887,-856.454 165.062,-845.443"/>
<polygon fill="black" stroke="black" points="168.566,-845.199 165.225,-835.145 161.567,-845.088 168.566,-845.199"/>
</g>
<!-- 8 -->
<g id="node9" class="node"><title>8</title>
<path fill="#e58139" stroke="black" d="M349.697,-834.9C349.697,-834.9 253.926,-834.9 253.926,-834.9 247.926,-834.9 241.926,-828.9 241.926,-822.9 241.926,-822.9 241.926,-771.5 241.926,-771.5 241.926,-765.5 247.926,-759.5 253.926,-759.5 253.926,-759.5 349.697,-759.5 349.697,-759.5 355.697,-759.5 361.697,-765.5 361.697,-771.5 361.697,-771.5 361.697,-822.9 361.697,-822.9 361.697,-828.9 355.697,-834.9 349.697,-834.9"/>
<text text-anchor="start" x="273.217" y="-818.2" font-family="Helvetica,sans-Serif" font-size="14.00">gini = 0.0</text>
<text text-anchor="start" x="252.211" y="-801.4" font-family="Helvetica,sans-Serif" font-size="14.00">samples = 1300</text>
<text text-anchor="start" x="249.869" y="-784.6" font-family="Helvetica,sans-Serif" font-size="14.00">value = [1300, 0]</text>
<text text-anchor="start" x="260" y="-767.8" font-family="Helvetica,sans-Serif" font-size="14.00">class = Noise</text>
</g>
<!-- 7&#45;&gt;8 -->
<g id="edge8" class="edge"><title>7&#45;&gt;8</title>
<path fill="none" stroke="black" d="M309.513,-879.067C308.463,-868.038 307.337,-856.213 306.279,-845.103"/>
<polygon fill="black" stroke="black" points="309.763,-844.768 305.33,-835.145 302.794,-845.432 309.763,-844.768"/>
</g>
<!-- 9 -->
<g id="node10" class="node"><title>9</title>
<path fill="#e58139" fill-opacity="0.882353" stroke="black" d="M511.41,-843.2C511.41,-843.2 392.214,-843.2 392.214,-843.2 386.214,-843.2 380.214,-837.2 380.214,-831.2 380.214,-831.2 380.214,-763.2 380.214,-763.2 380.214,-757.2 386.214,-751.2 392.214,-751.2 392.214,-751.2 511.41,-751.2 511.41,-751.2 517.41,-751.2 523.41,-757.2 523.41,-763.2 523.41,-763.2 523.41,-831.2 523.41,-831.2 523.41,-837.2 517.41,-843.2 511.41,-843.2"/>
<text text-anchor="start" x="388.013" y="-826.6" font-family="Helvetica,sans-Serif" font-size="14.00">SNRatio_s ≤ 2.9832</text>
<text text-anchor="start" x="411.543" y="-809.8" font-family="Helvetica,sans-Serif" font-size="14.00">gini = 0.1906</text>
<text text-anchor="start" x="409.994" y="-793" font-family="Helvetica,sans-Serif" font-size="14.00">samples = 75</text>
<text text-anchor="start" x="407.651" y="-776.2" font-family="Helvetica,sans-Serif" font-size="14.00">value = [67, 8]</text>
<text text-anchor="start" x="410" y="-759.4" font-family="Helvetica,sans-Serif" font-size="14.00">class = Noise</text>
</g>
<!-- 7&#45;&gt;9 -->
<g id="edge9" class="edge"><title>7&#45;&gt;9</title>
<path fill="none" stroke="black" d="M363.243,-879.067C373.449,-869.748 384.279,-859.861 394.731,-850.317"/>
<polygon fill="black" stroke="black" points="397.237,-852.769 402.262,-843.441 392.517,-847.599 397.237,-852.769"/>
</g>
<!-- 10 -->
<g id="node11" class="node"><title>10</title>
<path fill="#e58139" stroke="black" d="M366.133,-706.9C366.133,-706.9 285.491,-706.9 285.491,-706.9 279.491,-706.9 273.491,-700.9 273.491,-694.9 273.491,-694.9 273.491,-643.5 273.491,-643.5 273.491,-637.5 279.491,-631.5 285.491,-631.5 285.491,-631.5 366.133,-631.5 366.133,-631.5 372.133,-631.5 378.133,-637.5 378.133,-643.5 378.133,-643.5 378.133,-694.9 378.133,-694.9 378.133,-700.9 372.133,-706.9 366.133,-706.9"/>
<text text-anchor="start" x="297.217" y="-690.2" font-family="Helvetica,sans-Serif" font-size="14.00">gini = 0.0</text>
<text text-anchor="start" x="283.994" y="-673.4" font-family="Helvetica,sans-Serif" font-size="14.00">samples = 47</text>
<text text-anchor="start" x="281.651" y="-656.6" font-family="Helvetica,sans-Serif" font-size="14.00">value = [47, 0]</text>
<text text-anchor="start" x="284" y="-639.8" font-family="Helvetica,sans-Serif" font-size="14.00">class = Noise</text>
</g>
<!-- 9&#45;&gt;10 -->
<g id="edge10" class="edge"><title>9&#45;&gt;10</title>
<path fill="none" stroke="black" d="M406.679,-751.067C394.749,-739.138 381.888,-726.277 370.009,-714.397"/>
<polygon fill="black" stroke="black" points="372.303,-711.741 362.757,-707.145 367.353,-716.691 372.303,-711.741"/>
</g>
<!-- 11 -->
<g id="node12" class="node"><title>11</title>
<path fill="#e58139" fill-opacity="0.600000" stroke="black" d="M528.192,-715.2C528.192,-715.2 407.431,-715.2 407.431,-715.2 401.431,-715.2 395.431,-709.2 395.431,-703.2 395.431,-703.2 395.431,-635.2 395.431,-635.2 395.431,-629.2 401.431,-623.2 407.431,-623.2 407.431,-623.2 528.192,-623.2 528.192,-623.2 534.192,-623.2 540.192,-629.2 540.192,-635.2 540.192,-635.2 540.192,-703.2 540.192,-703.2 540.192,-709.2 534.192,-715.2 528.192,-715.2"/>
<text text-anchor="start" x="403.622" y="-698.6" font-family="Helvetica,sans-Serif" font-size="14.00">SNRatio_n ≤ 3.8713</text>
<text text-anchor="start" x="427.543" y="-681.8" font-family="Helvetica,sans-Serif" font-size="14.00">gini = 0.4082</text>
<text text-anchor="start" x="425.994" y="-665" font-family="Helvetica,sans-Serif" font-size="14.00">samples = 28</text>
<text text-anchor="start" x="423.651" y="-648.2" font-family="Helvetica,sans-Serif" font-size="14.00">value = [20, 8]</text>
<text text-anchor="start" x="426" y="-631.4" font-family="Helvetica,sans-Serif" font-size="14.00">class = Noise</text>
</g>
<!-- 9&#45;&gt;11 -->
<g id="edge11" class="edge"><title>9&#45;&gt;11</title>
<path fill="none" stroke="black" d="M457.543,-751.067C458.6,-742.743 459.714,-733.966 460.804,-725.385"/>
<polygon fill="black" stroke="black" points="464.279,-725.803 462.067,-715.441 457.335,-724.921 464.279,-725.803"/>
</g>
<!-- 12 -->
<g id="node13" class="node"><title>12</title>
<path fill="#399de5" fill-opacity="0.800000" stroke="black" d="M459.191,-587.2C459.191,-587.2 324.433,-587.2 324.433,-587.2 318.433,-587.2 312.433,-581.2 312.433,-575.2 312.433,-575.2 312.433,-507.2 312.433,-507.2 312.433,-501.2 318.433,-495.2 324.433,-495.2 324.433,-495.2 459.191,-495.2 459.191,-495.2 465.191,-495.2 471.191,-501.2 471.191,-507.2 471.191,-507.2 471.191,-575.2 471.191,-575.2 471.191,-581.2 465.191,-587.2 459.191,-587.2"/>
<text text-anchor="start" x="320.622" y="-570.6" font-family="Helvetica,sans-Serif" font-size="14.00">TotalNoise_s ≤ 14.256</text>
<text text-anchor="start" x="351.543" y="-553.8" font-family="Helvetica,sans-Serif" font-size="14.00">gini = 0.2778</text>
<text text-anchor="start" x="353.885" y="-537" font-family="Helvetica,sans-Serif" font-size="14.00">samples = 6</text>
<text text-anchor="start" x="351.543" y="-520.2" font-family="Helvetica,sans-Serif" font-size="14.00">value = [1, 5]</text>
<text text-anchor="start" x="353.884" y="-503.4" font-family="Helvetica,sans-Serif" font-size="14.00">class = EAS</text>
</g>
<!-- 11&#45;&gt;12 -->
<g id="edge12" class="edge"><title>11&#45;&gt;12</title>
<path fill="none" stroke="black" d="M440.589,-623.067C435.35,-614.381 429.813,-605.202 424.424,-596.267"/>
<polygon fill="black" stroke="black" points="427.262,-594.197 419.1,-587.441 421.268,-597.812 427.262,-594.197"/>
</g>
<!-- 15 -->
<g id="node16" class="node"><title>15</title>
<path fill="#e58139" fill-opacity="0.843137" stroke="black" d="M588.536,-587.2C588.536,-587.2 501.088,-587.2 501.088,-587.2 495.088,-587.2 489.088,-581.2 489.088,-575.2 489.088,-575.2 489.088,-507.2 489.088,-507.2 489.088,-501.2 495.088,-495.2 501.088,-495.2 501.088,-495.2 588.536,-495.2 588.536,-495.2 594.536,-495.2 600.536,-501.2 600.536,-507.2 600.536,-507.2 600.536,-575.2 600.536,-575.2 600.536,-581.2 594.536,-587.2 588.536,-587.2"/>
<text text-anchor="start" x="496.95" y="-570.6" font-family="Helvetica,sans-Serif" font-size="14.00">dt2_n ≤ 0.8536</text>
<text text-anchor="start" x="504.543" y="-553.8" font-family="Helvetica,sans-Serif" font-size="14.00">gini = 0.2355</text>
<text text-anchor="start" x="502.994" y="-537" font-family="Helvetica,sans-Serif" font-size="14.00">samples = 22</text>
<text text-anchor="start" x="500.651" y="-520.2" font-family="Helvetica,sans-Serif" font-size="14.00">value = [19, 3]</text>
<text text-anchor="start" x="503" y="-503.4" font-family="Helvetica,sans-Serif" font-size="14.00">class = Noise</text>
</g>
<!-- 11&#45;&gt;15 -->
<g id="edge15" class="edge"><title>11&#45;&gt;15</title>
<path fill="none" stroke="black" d="M495.393,-623.067C500.756,-614.291 506.427,-605.011 511.941,-595.988"/>
<polygon fill="black" stroke="black" points="514.936,-597.799 517.164,-587.441 508.963,-594.149 514.936,-597.799"/>
</g>
<!-- 13 -->
<g id="node14" class="node"><title>13</title>
<path fill="#e58139" stroke="black" d="M323.436,-450.9C323.436,-450.9 248.188,-450.9 248.188,-450.9 242.188,-450.9 236.188,-444.9 236.188,-438.9 236.188,-438.9 236.188,-387.5 236.188,-387.5 236.188,-381.5 242.188,-375.5 248.188,-375.5 248.188,-375.5 323.436,-375.5 323.436,-375.5 329.436,-375.5 335.436,-381.5 335.436,-387.5 335.436,-387.5 335.436,-438.9 335.436,-438.9 335.436,-444.9 329.436,-450.9 323.436,-450.9"/>
<text text-anchor="start" x="257.217" y="-434.2" font-family="Helvetica,sans-Serif" font-size="14.00">gini = 0.0</text>
<text text-anchor="start" x="247.885" y="-417.4" font-family="Helvetica,sans-Serif" font-size="14.00">samples = 1</text>
<text text-anchor="start" x="245.543" y="-400.6" font-family="Helvetica,sans-Serif" font-size="14.00">value = [1, 0]</text>
<text text-anchor="start" x="244" y="-383.8" font-family="Helvetica,sans-Serif" font-size="14.00">class = Noise</text>
</g>
<!-- 12&#45;&gt;13 -->
<g id="edge13" class="edge"><title>12&#45;&gt;13</title>
<path fill="none" stroke="black" d="M353.843,-495.067C343.996,-483.363 333.395,-470.762 323.56,-459.071"/>
<polygon fill="black" stroke="black" points="326.008,-456.544 316.892,-451.145 320.652,-461.05 326.008,-456.544"/>
</g>
<!-- 14 -->
<g id="node15" class="node"><title>14</title>
<path fill="#399de5" stroke="black" d="M437.851,-450.9C437.851,-450.9 365.773,-450.9 365.773,-450.9 359.773,-450.9 353.773,-444.9 353.773,-438.9 353.773,-438.9 353.773,-387.5 353.773,-387.5 353.773,-381.5 359.773,-375.5 365.773,-375.5 365.773,-375.5 437.851,-375.5 437.851,-375.5 443.851,-375.5 449.851,-381.5 449.851,-387.5 449.851,-387.5 449.851,-438.9 449.851,-438.9 449.851,-444.9 443.851,-450.9 437.851,-450.9"/>
<text text-anchor="start" x="373.217" y="-434.2" font-family="Helvetica,sans-Serif" font-size="14.00">gini = 0.0</text>
<text text-anchor="start" x="363.885" y="-417.4" font-family="Helvetica,sans-Serif" font-size="14.00">samples = 5</text>
<text text-anchor="start" x="361.543" y="-400.6" font-family="Helvetica,sans-Serif" font-size="14.00">value = [0, 5]</text>
<text text-anchor="start" x="363.884" y="-383.8" font-family="Helvetica,sans-Serif" font-size="14.00">class = EAS</text>
</g>
<!-- 12&#45;&gt;14 -->
<g id="edge14" class="edge"><title>12&#45;&gt;14</title>
<path fill="none" stroke="black" d="M395.394,-495.067C396.26,-484.151 397.188,-472.454 398.062,-461.443"/>
<polygon fill="black" stroke="black" points="401.577,-461.39 398.88,-451.145 394.599,-460.837 401.577,-461.39"/>
</g>
<!-- 16 -->
<g id="node17" class="node"><title>16</title>
<path fill="#399de5" stroke="black" d="M561.851,-450.9C561.851,-450.9 489.773,-450.9 489.773,-450.9 483.773,-450.9 477.773,-444.9 477.773,-438.9 477.773,-438.9 477.773,-387.5 477.773,-387.5 477.773,-381.5 483.773,-375.5 489.773,-375.5 489.773,-375.5 561.851,-375.5 561.851,-375.5 567.851,-375.5 573.851,-381.5 573.851,-387.5 573.851,-387.5 573.851,-438.9 573.851,-438.9 573.851,-444.9 567.851,-450.9 561.851,-450.9"/>
<text text-anchor="start" x="497.217" y="-434.2" font-family="Helvetica,sans-Serif" font-size="14.00">gini = 0.0</text>
<text text-anchor="start" x="487.885" y="-417.4" font-family="Helvetica,sans-Serif" font-size="14.00">samples = 1</text>
<text text-anchor="start" x="485.543" y="-400.6" font-family="Helvetica,sans-Serif" font-size="14.00">value = [0, 1]</text>
<text text-anchor="start" x="487.884" y="-383.8" font-family="Helvetica,sans-Serif" font-size="14.00">class = EAS</text>
</g>
<!-- 15&#45;&gt;16 -->
<g id="edge16" class="edge"><title>15&#45;&gt;16</title>
<path fill="none" stroke="black" d="M538.006,-495.067C536.343,-484.038 534.56,-472.213 532.884,-461.103"/>
<polygon fill="black" stroke="black" points="536.335,-460.511 531.383,-451.145 529.413,-461.555 536.335,-460.511"/>
</g>
<!-- 17 -->
<g id="node18" class="node"><title>17</title>
<path fill="#e58139" fill-opacity="0.894118" stroke="black" d="M738.191,-459.2C738.191,-459.2 603.433,-459.2 603.433,-459.2 597.433,-459.2 591.433,-453.2 591.433,-447.2 591.433,-447.2 591.433,-379.2 591.433,-379.2 591.433,-373.2 597.433,-367.2 603.433,-367.2 603.433,-367.2 738.191,-367.2 738.191,-367.2 744.191,-367.2 750.191,-373.2 750.191,-379.2 750.191,-379.2 750.191,-447.2 750.191,-447.2 750.191,-453.2 744.191,-459.2 738.191,-459.2"/>
<text text-anchor="start" x="599.622" y="-442.6" font-family="Helvetica,sans-Serif" font-size="14.00">TotalNoise_s ≤ 71.744</text>
<text text-anchor="start" x="630.543" y="-425.8" font-family="Helvetica,sans-Serif" font-size="14.00">gini = 0.1723</text>
<text text-anchor="start" x="628.994" y="-409" font-family="Helvetica,sans-Serif" font-size="14.00">samples = 21</text>
<text text-anchor="start" x="626.651" y="-392.2" font-family="Helvetica,sans-Serif" font-size="14.00">value = [19, 2]</text>
<text text-anchor="start" x="629" y="-375.4" font-family="Helvetica,sans-Serif" font-size="14.00">class = Noise</text>
</g>
<!-- 15&#45;&gt;17 -->
<g id="edge17" class="edge"><title>15&#45;&gt;17</title>
<path fill="none" stroke="black" d="M589.945,-495.067C599.173,-485.839 608.959,-476.053 618.417,-466.595"/>
<polygon fill="black" stroke="black" points="620.974,-468.987 625.57,-459.441 616.024,-464.038 620.974,-468.987"/>
</g>
<!-- 18 -->
<g id="node19" class="node"><title>18</title>
<path fill="#e58139" fill-opacity="0.945098" stroke="black" d="M637.133,-331.2C637.133,-331.2 556.491,-331.2 556.491,-331.2 550.491,-331.2 544.491,-325.2 544.491,-319.2 544.491,-319.2 544.491,-251.2 544.491,-251.2 544.491,-245.2 550.491,-239.2 556.491,-239.2 556.491,-239.2 637.133,-239.2 637.133,-239.2 643.133,-239.2 649.133,-245.2 649.133,-251.2 649.133,-251.2 649.133,-319.2 649.133,-319.2 649.133,-325.2 643.133,-331.2 637.133,-331.2"/>
<text text-anchor="start" x="555.578" y="-314.6" font-family="Helvetica,sans-Serif" font-size="14.00">Crit2 ≤ 1.256</text>
<text text-anchor="start" x="556.543" y="-297.8" font-family="Helvetica,sans-Serif" font-size="14.00">gini = 0.0997</text>
<text text-anchor="start" x="554.994" y="-281" font-family="Helvetica,sans-Serif" font-size="14.00">samples = 19</text>
<text text-anchor="start" x="552.651" y="-264.2" font-family="Helvetica,sans-Serif" font-size="14.00">value = [18, 1]</text>
<text text-anchor="start" x="555" y="-247.4" font-family="Helvetica,sans-Serif" font-size="14.00">class = Noise</text>
</g>
<!-- 17&#45;&gt;18 -->
<g id="edge18" class="edge"><title>17&#45;&gt;18</title>
<path fill="none" stroke="black" d="M644.305,-367.067C639.204,-358.381 633.813,-349.202 628.565,-340.267"/>
<polygon fill="black" stroke="black" points="631.464,-338.292 623.382,-331.441 625.428,-341.837 631.464,-338.292"/>
</g>
<!-- 23 -->
<g id="node24" class="node"><title>23</title>
<path fill="none" stroke="black" d="M781.436,-331.2C781.436,-331.2 706.188,-331.2 706.188,-331.2 700.188,-331.2 694.188,-325.2 694.188,-319.2 694.188,-319.2 694.188,-251.2 694.188,-251.2 694.188,-245.2 700.188,-239.2 706.188,-239.2 706.188,-239.2 781.436,-239.2 781.436,-239.2 787.436,-239.2 793.436,-245.2 793.436,-251.2 793.436,-251.2 793.436,-319.2 793.436,-319.2 793.436,-325.2 787.436,-331.2 781.436,-331.2"/>
<text text-anchor="start" x="702.578" y="-314.6" font-family="Helvetica,sans-Serif" font-size="14.00">Crit2 ≤ 0.533</text>
<text text-anchor="start" x="715.217" y="-297.8" font-family="Helvetica,sans-Serif" font-size="14.00">gini = 0.5</text>
<text text-anchor="start" x="705.885" y="-281" font-family="Helvetica,sans-Serif" font-size="14.00">samples = 2</text>
<text text-anchor="start" x="703.543" y="-264.2" font-family="Helvetica,sans-Serif" font-size="14.00">value = [1, 1]</text>
<text text-anchor="start" x="702" y="-247.4" font-family="Helvetica,sans-Serif" font-size="14.00">class = Noise</text>
</g>
<!-- 17&#45;&gt;23 -->
<g id="edge23" class="edge"><title>17&#45;&gt;23</title>
<path fill="none" stroke="black" d="M696.96,-367.067C701.992,-358.381 707.311,-349.202 712.487,-340.267"/>
<polygon fill="black" stroke="black" points="715.616,-341.849 717.6,-331.441 709.559,-338.339 715.616,-341.849"/>
</g>
<!-- 19 -->
<g id="node20" class="node"><title>19</title>
<path fill="#e58139" stroke="black" d="M486.133,-194.9C486.133,-194.9 405.491,-194.9 405.491,-194.9 399.491,-194.9 393.491,-188.9 393.491,-182.9 393.491,-182.9 393.491,-131.5 393.491,-131.5 393.491,-125.5 399.491,-119.5 405.491,-119.5 405.491,-119.5 486.133,-119.5 486.133,-119.5 492.133,-119.5 498.133,-125.5 498.133,-131.5 498.133,-131.5 498.133,-182.9 498.133,-182.9 498.133,-188.9 492.133,-194.9 486.133,-194.9"/>
<text text-anchor="start" x="417.217" y="-178.2" font-family="Helvetica,sans-Serif" font-size="14.00">gini = 0.0</text>
<text text-anchor="start" x="403.994" y="-161.4" font-family="Helvetica,sans-Serif" font-size="14.00">samples = 15</text>
<text text-anchor="start" x="401.651" y="-144.6" font-family="Helvetica,sans-Serif" font-size="14.00">value = [15, 0]</text>
<text text-anchor="start" x="404" y="-127.8" font-family="Helvetica,sans-Serif" font-size="14.00">class = Noise</text>
</g>
<!-- 18&#45;&gt;19 -->
<g id="edge19" class="edge"><title>18&#45;&gt;19</title>
<path fill="none" stroke="black" d="M544.423,-240.485C529.335,-227.895 512.885,-214.169 497.821,-201.598"/>
<polygon fill="black" stroke="black" points="500.004,-198.862 490.084,-195.142 495.519,-204.236 500.004,-198.862"/>
</g>
<!-- 20 -->
<g id="node21" class="node"><title>20</title>
<path fill="#e58139" fill-opacity="0.666667" stroke="black" d="M666.097,-203.2C666.097,-203.2 527.527,-203.2 527.527,-203.2 521.527,-203.2 515.527,-197.2 515.527,-191.2 515.527,-191.2 515.527,-123.2 515.527,-123.2 515.527,-117.2 521.527,-111.2 527.527,-111.2 527.527,-111.2 666.097,-111.2 666.097,-111.2 672.097,-111.2 678.097,-117.2 678.097,-123.2 678.097,-123.2 678.097,-191.2 678.097,-191.2 678.097,-197.2 672.097,-203.2 666.097,-203.2"/>
<text text-anchor="start" x="523.669" y="-186.6" font-family="Helvetica,sans-Serif" font-size="14.00">AbsSignal_s ≤ 329.743</text>
<text text-anchor="start" x="560.434" y="-169.8" font-family="Helvetica,sans-Serif" font-size="14.00">gini = 0.375</text>
<text text-anchor="start" x="558.885" y="-153" font-family="Helvetica,sans-Serif" font-size="14.00">samples = 4</text>
<text text-anchor="start" x="556.543" y="-136.2" font-family="Helvetica,sans-Serif" font-size="14.00">value = [3, 1]</text>
<text text-anchor="start" x="555" y="-119.4" font-family="Helvetica,sans-Serif" font-size="14.00">class = Noise</text>
</g>
<!-- 18&#45;&gt;20 -->
<g id="edge20" class="edge"><title>18&#45;&gt;20</title>
<path fill="none" stroke="black" d="M596.812,-239.067C596.812,-230.834 596.812,-222.157 596.812,-213.665"/>
<polygon fill="black" stroke="black" points="600.312,-213.441 596.812,-203.441 593.312,-213.441 600.312,-213.441"/>
</g>
<!-- 21 -->
<g id="node22" class="node"><title>21</title>
<path fill="#e58139" stroke="black" d="M576.436,-75.3003C576.436,-75.3003 501.188,-75.3003 501.188,-75.3003 495.188,-75.3003 489.188,-69.3003 489.188,-63.3003 489.188,-63.3003 489.188,-11.8997 489.188,-11.8997 489.188,-5.89973 495.188,0.100267 501.188,0.100267 501.188,0.100267 576.436,0.100267 576.436,0.100267 582.436,0.100267 588.436,-5.89973 588.436,-11.8997 588.436,-11.8997 588.436,-63.3003 588.436,-63.3003 588.436,-69.3003 582.436,-75.3003 576.436,-75.3003"/>
<text text-anchor="start" x="510.217" y="-58.6" font-family="Helvetica,sans-Serif" font-size="14.00">gini = 0.0</text>
<text text-anchor="start" x="500.885" y="-41.8" font-family="Helvetica,sans-Serif" font-size="14.00">samples = 3</text>
<text text-anchor="start" x="498.543" y="-25" font-family="Helvetica,sans-Serif" font-size="14.00">value = [3, 0]</text>
<text text-anchor="start" x="497" y="-8.2" font-family="Helvetica,sans-Serif" font-size="14.00">class = Noise</text>
</g>
<!-- 20&#45;&gt;21 -->
<g id="edge21" class="edge"><title>20&#45;&gt;21</title>
<path fill="none" stroke="black" d="M574.553,-111.069C570.283,-102.412 565.807,-93.3359 561.523,-84.65"/>
<polygon fill="black" stroke="black" points="564.532,-82.8366 556.969,-75.4162 558.254,-85.9329 564.532,-82.8366"/>
</g>
<!-- 22 -->
<g id="node23" class="node"><title>22</title>
<path fill="#399de5" stroke="black" d="M690.851,-75.3003C690.851,-75.3003 618.773,-75.3003 618.773,-75.3003 612.773,-75.3003 606.773,-69.3003 606.773,-63.3003 606.773,-63.3003 606.773,-11.8997 606.773,-11.8997 606.773,-5.89973 612.773,0.100267 618.773,0.100267 618.773,0.100267 690.851,0.100267 690.851,0.100267 696.851,0.100267 702.851,-5.89973 702.851,-11.8997 702.851,-11.8997 702.851,-63.3003 702.851,-63.3003 702.851,-69.3003 696.851,-75.3003 690.851,-75.3003"/>
<text text-anchor="start" x="626.217" y="-58.6" font-family="Helvetica,sans-Serif" font-size="14.00">gini = 0.0</text>
<text text-anchor="start" x="616.885" y="-41.8" font-family="Helvetica,sans-Serif" font-size="14.00">samples = 1</text>
<text text-anchor="start" x="614.543" y="-25" font-family="Helvetica,sans-Serif" font-size="14.00">value = [0, 1]</text>
<text text-anchor="start" x="616.884" y="-8.2" font-family="Helvetica,sans-Serif" font-size="14.00">class = EAS</text>
</g>
<!-- 20&#45;&gt;22 -->
<g id="edge22" class="edge"><title>20&#45;&gt;22</title>
<path fill="none" stroke="black" d="M619.07,-111.069C623.34,-102.412 627.816,-93.3359 632.1,-84.65"/>
<polygon fill="black" stroke="black" points="635.37,-85.9329 636.654,-75.4162 629.092,-82.8366 635.37,-85.9329"/>
</g>
<!-- 24 -->
<g id="node25" class="node"><title>24</title>
<path fill="#399de5" stroke="black" d="M779.851,-194.9C779.851,-194.9 707.773,-194.9 707.773,-194.9 701.773,-194.9 695.773,-188.9 695.773,-182.9 695.773,-182.9 695.773,-131.5 695.773,-131.5 695.773,-125.5 701.773,-119.5 707.773,-119.5 707.773,-119.5 779.851,-119.5 779.851,-119.5 785.851,-119.5 791.851,-125.5 791.851,-131.5 791.851,-131.5 791.851,-182.9 791.851,-182.9 791.851,-188.9 785.851,-194.9 779.851,-194.9"/>
<text text-anchor="start" x="715.217" y="-178.2" font-family="Helvetica,sans-Serif" font-size="14.00">gini = 0.0</text>
<text text-anchor="start" x="705.885" y="-161.4" font-family="Helvetica,sans-Serif" font-size="14.00">samples = 1</text>
<text text-anchor="start" x="703.543" y="-144.6" font-family="Helvetica,sans-Serif" font-size="14.00">value = [0, 1]</text>
<text text-anchor="start" x="705.884" y="-127.8" font-family="Helvetica,sans-Serif" font-size="14.00">class = EAS</text>
</g>
<!-- 23&#45;&gt;24 -->
<g id="edge24" class="edge"><title>23&#45;&gt;24</title>
<path fill="none" stroke="black" d="M743.812,-239.067C743.812,-228.151 743.812,-216.454 743.812,-205.443"/>
<polygon fill="black" stroke="black" points="747.312,-205.145 743.812,-195.145 740.312,-205.145 747.312,-205.145"/>
</g>
<!-- 25 -->
<g id="node26" class="node"><title>25</title>
<path fill="#e58139" stroke="black" d="M897.436,-194.9C897.436,-194.9 822.188,-194.9 822.188,-194.9 816.188,-194.9 810.188,-188.9 810.188,-182.9 810.188,-182.9 810.188,-131.5 810.188,-131.5 810.188,-125.5 816.188,-119.5 822.188,-119.5 822.188,-119.5 897.436,-119.5 897.436,-119.5 903.436,-119.5 909.436,-125.5 909.436,-131.5 909.436,-131.5 909.436,-182.9 909.436,-182.9 909.436,-188.9 903.436,-194.9 897.436,-194.9"/>
<text text-anchor="start" x="831.217" y="-178.2" font-family="Helvetica,sans-Serif" font-size="14.00">gini = 0.0</text>
<text text-anchor="start" x="821.885" y="-161.4" font-family="Helvetica,sans-Serif" font-size="14.00">samples = 1</text>
<text text-anchor="start" x="819.543" y="-144.6" font-family="Helvetica,sans-Serif" font-size="14.00">value = [1, 0]</text>
<text text-anchor="start" x="818" y="-127.8" font-family="Helvetica,sans-Serif" font-size="14.00">class = Noise</text>
</g>
<!-- 23&#45;&gt;25 -->
<g id="edge25" class="edge"><title>23&#45;&gt;25</title>
<path fill="none" stroke="black" d="M785.363,-239.067C796.242,-227.25 807.962,-214.519 818.812,-202.734"/>
<polygon fill="black" stroke="black" points="821.601,-204.872 825.799,-195.145 816.451,-200.131 821.601,-204.872"/>
</g>
<!-- 27 -->
<g id="node28" class="node"><title>27</title>
<path fill="#e58139" stroke="black" d="M491.133,-1090.9C491.133,-1090.9 410.491,-1090.9 410.491,-1090.9 404.491,-1090.9 398.491,-1084.9 398.491,-1078.9 398.491,-1078.9 398.491,-1027.5 398.491,-1027.5 398.491,-1021.5 404.491,-1015.5 410.491,-1015.5 410.491,-1015.5 491.133,-1015.5 491.133,-1015.5 497.133,-1015.5 503.133,-1021.5 503.133,-1027.5 503.133,-1027.5 503.133,-1078.9 503.133,-1078.9 503.133,-1084.9 497.133,-1090.9 491.133,-1090.9"/>
<text text-anchor="start" x="422.217" y="-1074.2" font-family="Helvetica,sans-Serif" font-size="14.00">gini = 0.0</text>
<text text-anchor="start" x="408.994" y="-1057.4" font-family="Helvetica,sans-Serif" font-size="14.00">samples = 74</text>
<text text-anchor="start" x="406.651" y="-1040.6" font-family="Helvetica,sans-Serif" font-size="14.00">value = [74, 0]</text>
<text text-anchor="start" x="409" y="-1023.8" font-family="Helvetica,sans-Serif" font-size="14.00">class = Noise</text>
</g>
<!-- 26&#45;&gt;27 -->
<g id="edge27" class="edge"><title>26&#45;&gt;27</title>
<path fill="none" stroke="black" d="M457.23,-1135.07C456.363,-1124.15 455.435,-1112.45 454.561,-1101.44"/>
<polygon fill="black" stroke="black" points="458.024,-1100.84 453.744,-1091.14 451.046,-1101.39 458.024,-1100.84"/>
</g>
<!-- 28 -->
<g id="node29" class="node"><title>28</title>
<path fill="#399de5" fill-opacity="0.996078" stroke="black" d="M652.41,-1099.2C652.41,-1099.2 533.214,-1099.2 533.214,-1099.2 527.214,-1099.2 521.214,-1093.2 521.214,-1087.2 521.214,-1087.2 521.214,-1019.2 521.214,-1019.2 521.214,-1013.2 527.214,-1007.2 533.214,-1007.2 533.214,-1007.2 652.41,-1007.2 652.41,-1007.2 658.41,-1007.2 664.41,-1013.2 664.41,-1019.2 664.41,-1019.2 664.41,-1087.2 664.41,-1087.2 664.41,-1093.2 658.41,-1099.2 652.41,-1099.2"/>
<text text-anchor="start" x="529.013" y="-1082.6" font-family="Helvetica,sans-Serif" font-size="14.00">SNRatio_s ≤ 0.6422</text>
<text text-anchor="start" x="552.543" y="-1065.8" font-family="Helvetica,sans-Serif" font-size="14.00">gini = 0.0089</text>
<text text-anchor="start" x="547.102" y="-1049" font-family="Helvetica,sans-Serif" font-size="14.00">samples = 449</text>
<text text-anchor="start" x="544.76" y="-1032.2" font-family="Helvetica,sans-Serif" font-size="14.00">value = [2, 447]</text>
<text text-anchor="start" x="554.884" y="-1015.4" font-family="Helvetica,sans-Serif" font-size="14.00">class = EAS</text>
</g>
<!-- 26&#45;&gt;28 -->
<g id="edge28" class="edge"><title>26&#45;&gt;28</title>
<path fill="none" stroke="black" d="M508.094,-1135.07C517.762,-1125.84 528.014,-1116.05 537.922,-1106.6"/>
<polygon fill="black" stroke="black" points="540.599,-1108.88 545.416,-1099.44 535.766,-1103.81 540.599,-1108.88"/>
</g>
<!-- 29 -->
<g id="node30" class="node"><title>29</title>
<path fill="#e58139" stroke="black" d="M619.436,-962.9C619.436,-962.9 544.188,-962.9 544.188,-962.9 538.188,-962.9 532.188,-956.9 532.188,-950.9 532.188,-950.9 532.188,-899.5 532.188,-899.5 532.188,-893.5 538.188,-887.5 544.188,-887.5 544.188,-887.5 619.436,-887.5 619.436,-887.5 625.436,-887.5 631.436,-893.5 631.436,-899.5 631.436,-899.5 631.436,-950.9 631.436,-950.9 631.436,-956.9 625.436,-962.9 619.436,-962.9"/>
<text text-anchor="start" x="553.217" y="-946.2" font-family="Helvetica,sans-Serif" font-size="14.00">gini = 0.0</text>
<text text-anchor="start" x="543.885" y="-929.4" font-family="Helvetica,sans-Serif" font-size="14.00">samples = 1</text>
<text text-anchor="start" x="541.543" y="-912.6" font-family="Helvetica,sans-Serif" font-size="14.00">value = [1, 0]</text>
<text text-anchor="start" x="540" y="-895.8" font-family="Helvetica,sans-Serif" font-size="14.00">class = Noise</text>
</g>
<!-- 28&#45;&gt;29 -->
<g id="edge29" class="edge"><title>28&#45;&gt;29</title>
<path fill="none" stroke="black" d="M588.872,-1007.07C587.918,-996.151 586.897,-984.454 585.936,-973.443"/>
<polygon fill="black" stroke="black" points="589.394,-972.803 585.037,-963.145 582.42,-973.411 589.394,-972.803"/>
</g>
<!-- 30 -->
<g id="node31" class="node"><title>30</title>
<path fill="#399de5" fill-opacity="0.996078" stroke="black" d="M749.915,-971.2C749.915,-971.2 661.709,-971.2 661.709,-971.2 655.709,-971.2 649.709,-965.2 649.709,-959.2 649.709,-959.2 649.709,-891.2 649.709,-891.2 649.709,-885.2 655.709,-879.2 661.709,-879.2 661.709,-879.2 749.915,-879.2 749.915,-879.2 755.915,-879.2 761.915,-885.2 761.915,-891.2 761.915,-891.2 761.915,-959.2 761.915,-959.2 761.915,-965.2 755.915,-971.2 749.915,-971.2"/>
<text text-anchor="start" x="663.024" y="-954.6" font-family="Helvetica,sans-Serif" font-size="14.00">NNear3 ≤ 1.5</text>
<text text-anchor="start" x="665.543" y="-937.8" font-family="Helvetica,sans-Serif" font-size="14.00">gini = 0.0045</text>
<text text-anchor="start" x="660.102" y="-921" font-family="Helvetica,sans-Serif" font-size="14.00">samples = 448</text>
<text text-anchor="start" x="657.76" y="-904.2" font-family="Helvetica,sans-Serif" font-size="14.00">value = [1, 447]</text>
<text text-anchor="start" x="667.884" y="-887.4" font-family="Helvetica,sans-Serif" font-size="14.00">class = EAS</text>
</g>
<!-- 28&#45;&gt;30 -->
<g id="edge30" class="edge"><title>28&#45;&gt;30</title>
<path fill="none" stroke="black" d="M633.288,-1007.07C641.402,-998.02 649.997,-988.436 658.323,-979.152"/>
<polygon fill="black" stroke="black" points="661.167,-981.223 665.238,-971.441 655.956,-976.549 661.167,-981.223"/>
</g>
<!-- 31 -->
<g id="node32" class="node"><title>31</title>
<path fill="none" stroke="black" d="M744.536,-843.2C744.536,-843.2 657.088,-843.2 657.088,-843.2 651.088,-843.2 645.088,-837.2 645.088,-831.2 645.088,-831.2 645.088,-763.2 645.088,-763.2 645.088,-757.2 651.088,-751.2 657.088,-751.2 657.088,-751.2 744.536,-751.2 744.536,-751.2 750.536,-751.2 756.536,-757.2 756.536,-763.2 756.536,-763.2 756.536,-831.2 756.536,-831.2 756.536,-837.2 750.536,-843.2 744.536,-843.2"/>
<text text-anchor="start" x="652.95" y="-826.6" font-family="Helvetica,sans-Serif" font-size="14.00">dt2_n ≤ 2.0607</text>
<text text-anchor="start" x="672.217" y="-809.8" font-family="Helvetica,sans-Serif" font-size="14.00">gini = 0.5</text>
<text text-anchor="start" x="662.885" y="-793" font-family="Helvetica,sans-Serif" font-size="14.00">samples = 2</text>
<text text-anchor="start" x="660.543" y="-776.2" font-family="Helvetica,sans-Serif" font-size="14.00">value = [1, 1]</text>
<text text-anchor="start" x="659" y="-759.4" font-family="Helvetica,sans-Serif" font-size="14.00">class = Noise</text>
</g>
<!-- 30&#45;&gt;31 -->
<g id="edge31" class="edge"><title>30&#45;&gt;31</title>
<path fill="none" stroke="black" d="M704.021,-879.067C703.694,-870.834 703.35,-862.157 703.013,-853.665"/>
<polygon fill="black" stroke="black" points="706.501,-853.295 702.607,-843.441 699.506,-853.572 706.501,-853.295"/>
</g>
<!-- 34 -->
<g id="node35" class="node"><title>34</title>
<path fill="#399de5" stroke="black" d="M874.915,-834.9C874.915,-834.9 786.709,-834.9 786.709,-834.9 780.709,-834.9 774.709,-828.9 774.709,-822.9 774.709,-822.9 774.709,-771.5 774.709,-771.5 774.709,-765.5 780.709,-759.5 786.709,-759.5 786.709,-759.5 874.915,-759.5 874.915,-759.5 880.915,-759.5 886.915,-765.5 886.915,-771.5 886.915,-771.5 886.915,-822.9 886.915,-822.9 886.915,-828.9 880.915,-834.9 874.915,-834.9"/>
<text text-anchor="start" x="802.217" y="-818.2" font-family="Helvetica,sans-Serif" font-size="14.00">gini = 0.0</text>
<text text-anchor="start" x="785.102" y="-801.4" font-family="Helvetica,sans-Serif" font-size="14.00">samples = 446</text>
<text text-anchor="start" x="782.76" y="-784.6" font-family="Helvetica,sans-Serif" font-size="14.00">value = [0, 446]</text>
<text text-anchor="start" x="792.884" y="-767.8" font-family="Helvetica,sans-Serif" font-size="14.00">class = EAS</text>
</g>
<!-- 30&#45;&gt;34 -->
<g id="edge34" class="edge"><title>30&#45;&gt;34</title>
<path fill="none" stroke="black" d="M750.587,-879.067C762.421,-867.138 775.18,-854.277 786.965,-842.397"/>
<polygon fill="black" stroke="black" points="789.602,-844.709 794.16,-835.145 784.632,-839.779 789.602,-844.709"/>
</g>
<!-- 32 -->
<g id="node33" class="node"><title>32</title>
<path fill="#399de5" stroke="black" d="M674.851,-706.9C674.851,-706.9 602.773,-706.9 602.773,-706.9 596.773,-706.9 590.773,-700.9 590.773,-694.9 590.773,-694.9 590.773,-643.5 590.773,-643.5 590.773,-637.5 596.773,-631.5 602.773,-631.5 602.773,-631.5 674.851,-631.5 674.851,-631.5 680.851,-631.5 686.851,-637.5 686.851,-643.5 686.851,-643.5 686.851,-694.9 686.851,-694.9 686.851,-700.9 680.851,-706.9 674.851,-706.9"/>
<text text-anchor="start" x="610.217" y="-690.2" font-family="Helvetica,sans-Serif" font-size="14.00">gini = 0.0</text>
<text text-anchor="start" x="600.885" y="-673.4" font-family="Helvetica,sans-Serif" font-size="14.00">samples = 1</text>
<text text-anchor="start" x="598.543" y="-656.6" font-family="Helvetica,sans-Serif" font-size="14.00">value = [0, 1]</text>
<text text-anchor="start" x="600.884" y="-639.8" font-family="Helvetica,sans-Serif" font-size="14.00">class = EAS</text>
</g>
<!-- 31&#45;&gt;32 -->
<g id="edge32" class="edge"><title>31&#45;&gt;32</title>
<path fill="none" stroke="black" d="M678.603,-751.067C673.066,-739.813 667.12,-727.73 661.557,-716.424"/>
<polygon fill="black" stroke="black" points="664.546,-714.572 656.991,-707.145 658.266,-717.663 664.546,-714.572"/>
</g>
<!-- 33 -->
<g id="node34" class="node"><title>33</title>
<path fill="#e58139" stroke="black" d="M792.436,-706.9C792.436,-706.9 717.188,-706.9 717.188,-706.9 711.188,-706.9 705.188,-700.9 705.188,-694.9 705.188,-694.9 705.188,-643.5 705.188,-643.5 705.188,-637.5 711.188,-631.5 717.188,-631.5 717.188,-631.5 792.436,-631.5 792.436,-631.5 798.436,-631.5 804.436,-637.5 804.436,-643.5 804.436,-643.5 804.436,-694.9 804.436,-694.9 804.436,-700.9 798.436,-706.9 792.436,-706.9"/>
<text text-anchor="start" x="726.217" y="-690.2" font-family="Helvetica,sans-Serif" font-size="14.00">gini = 0.0</text>
<text text-anchor="start" x="716.885" y="-673.4" font-family="Helvetica,sans-Serif" font-size="14.00">samples = 1</text>
<text text-anchor="start" x="714.543" y="-656.6" font-family="Helvetica,sans-Serif" font-size="14.00">value = [1, 0]</text>
<text text-anchor="start" x="713" y="-639.8" font-family="Helvetica,sans-Serif" font-size="14.00">class = Noise</text>
</g>
<!-- 31&#45;&gt;33 -->
<g id="edge33" class="edge"><title>31&#45;&gt;33</title>
<path fill="none" stroke="black" d="M720.154,-751.067C724.978,-739.813 730.156,-727.73 735.002,-716.424"/>
<polygon fill="black" stroke="black" points="738.256,-717.715 738.978,-707.145 731.822,-714.958 738.256,-717.715"/>
</g>
</g>
</svg>
